<?xml version="1.0" encoding="UTF-8" standalone="no"?>
<svg
   xmlns:dc="http://purl.org/dc/elements/1.1/"
   xmlns:cc="http://creativecommons.org/ns#"
   xmlns:rdf="http://www.w3.org/1999/02/22-rdf-syntax-ns#"
   xmlns:svg="http://www.w3.org/2000/svg"
   xmlns="http://www.w3.org/2000/svg"
   xmlns:sodipodi="http://sodipodi.sourceforge.net/DTD/sodipodi-0.dtd"
   xmlns:inkscape="http://www.inkscape.org/namespaces/inkscape"
   width="210mm"
   height="297mm"
   viewBox="0 0 210 297"
   version="1.1"
   id="svg8"
   inkscape:version="1.0 (4035a4fb49, 2020-05-01)"
   sodipodi:docname="pokeball.svg">
  <defs
     id="defs2" />
  <sodipodi:namedview
     id="base"
     pagecolor="#ffffff"
     bordercolor="#666666"
     borderopacity="1.0"
     inkscape:pageopacity="0.0"
     inkscape:pageshadow="2"
     inkscape:zoom="0.35"
     inkscape:cx="400"
     inkscape:cy="331.42857"
     inkscape:document-units="mm"
     inkscape:current-layer="layer1"
     inkscape:document-rotation="0"
     showgrid="false"
     inkscape:window-width="1920"
     inkscape:window-height="1001"
     inkscape:window-x="-9"
     inkscape:window-y="-9"
     inkscape:window-maximized="1" />
  <metadata
     id="metadata5">
    <rdf:RDF>
      <cc:Work
         rdf:about="">
        <dc:format>image/svg+xml</dc:format>
        <dc:type
           rdf:resource="http://purl.org/dc/dcmitype/StillImage" />
        <dc:title />
      </cc:Work>
    </rdf:RDF>
  </metadata>
  <g
     inkscape:label="Layer 1"
     inkscape:groupmode="layer"
     id="layer1">
    <path
       style="fill:#000000;stroke-width:0.247831"
       d="m 96.582796,248.02053 c -0.488256,-0.0528 -2.029141,-0.2103 -3.424187,-0.3501 -1.395038,-0.13981 -3.906111,-0.47174 -5.580162,-0.73763 -38.5326,-6.12021 -70.428241,-32.10995 -82.7895497,-67.45996 -1.6119386,-4.6097 -4.0833573,-14.26695 -4.0833573,-15.956 0,-0.29461 3.8102761,-0.34357 26.695983,-0.34303 l 26.695981,7.3e-4 0.724103,1.95729 c 2.374544,6.41851 7.087035,13.41178 12.483267,18.52499 10.035333,9.50899 23.266523,14.71586 37.394526,14.71586 17.86774,0 34.25311,-8.3752 44.15164,-22.56766 2.45778,-3.52395 4.60746,-7.51261 5.73111,-10.63388 l 0.71913,-1.99763 26.69598,-1.1e-4 c 26.29519,-1.2e-4 26.69599,0.007 26.69599,0.47189 0,0.85485 -1.02719,5.64271 -1.9508,9.09296 -3.21364,12.00486 -9.11007,23.96291 -16.75231,33.97389 -3.47554,4.55281 -6.43185,7.83837 -10.83692,12.04386 -15.41941,14.72077 -34.18768,24.11572 -55.81103,27.93767 -6.10539,1.07913 -8.86048,1.29306 -17.5014,1.35901 -4.60363,0.0351 -8.769728,0.0207 -9.257994,-0.0321 z m 5.199694,-67.67004 c -7.969044,-0.65955 -15.211015,-3.81367 -20.964657,-9.13082 -10.15978,-9.389 -13.298233,-23.57641 -7.973621,-36.04491 4.357634,-10.20417 13.934728,-17.67883 25.460879,-19.87151 3.043929,-0.57907 9.744669,-0.57907 12.788609,0 13.23431,2.51764 23.69154,11.91026 26.95046,24.20674 2.94384,11.10765 -0.30125,22.69814 -8.66437,30.94649 -1.29331,1.27556 -3.25253,2.93857 -4.35382,3.69558 -6.69678,4.60325 -15.18086,6.86574 -23.24348,6.19843 z M 22.96276,131.9989 c -21.98651145,-0.065 -22.25722,-0.0717 -22.25722,-0.54511 0,-1.0454 1.6121723,-8.02136 2.6523614,-11.47688 C 8.269382,103.66084 16.931777,89.463333 29.358172,77.362988 46.919319,60.262606 68.088375,50.414386 93.53908,47.504895 c 4.538118,-0.518792 16.64268,-0.592192 21.05241,-0.127659 11.87158,1.25059 21.33404,3.556833 31.44727,7.66451 29.98695,12.179738 52.89685,37.761482 60.73059,67.813264 0.93848,3.60019 2.06769,9.04531 1.8984,9.15411 -0.0557,0.0359 -12.09286,0.0232 -26.74918,-0.0279 l -26.64785,-0.093 -0.70814,-1.85293 c -3.9713,-10.39136 -12.27878,-20.02478 -22.24233,-25.79241 -17.60224,-10.189473 -39.890265,-9.802673 -56.887612,0.98726 -9.417155,5.97803 -16.823673,14.90241 -20.656193,24.88941 l -0.743408,1.93721 -4.406525,0.004 c -2.423597,0.003 -14.422281,-0.0257 -26.663752,-0.0619 z"
       id="path24" />
  </g>
</svg>
